# AST/ASF file generated using VICON BodyLanguage
# -----------------------------------------------
:version 1.10
:name VICON
:units
  mass 1.0
  length 0.45
  angle deg
:documentation
   .ast/.asf automatically generated from VICON data using
   VICON BodyBuilder and BodyLanguage model FoxedUp or BRILLIANT.MOD
:root
   order TX TY TZ RX RY RZ
   axis XYZ
   position 0 0 0  
   orientation 0 0 0 
:bonedata
  begin
     id 1 
     name lhipjoint
     direction 0.558404 -0.748506 0.357664 
     length 2.4234 
     axis 0 0 0  XYZ
  end
  begin
     id 2 
     name lfemur
     direction 0.34202 -0.939693 0  
     length 7.14567  
     axis 0 0 20  XYZ
    dof rx ry rz
    limits (-160.0 20.0)
           (-70.0 70.0)
           (-60.0 70.0)
  end
  begin
     id 3 
     name ltibia
     direction 0.34202 -0.939693 0   
     length 8.13956   
     axis 0 0 20   XYZ
    dof rx
    limits (-10.0 170.0)
  end
  begin
     id 4 
     name lfoot
     direction 0.0791314 -0.217412 0.972867   
     length 2.00134   
     axis -90 7.62852e-016 20   XYZ
    dof rx rz
    limits (-45.0 90.0)
           (-70.0 20.0)
  end
  begin
     id 5 
     name ltoes
     direction 1.53547e-011 -4.21922e-011 1   
     length 1.00735   
     axis -90 7.62852e-016 20   XYZ
    dof rx
    limits (-90.0 20.0)
  end
  begin
     id 6 
     name rhipjoint
     direction -0.496392 -0.78327 0.374276   
     length 2.31584  
     axis 0 0 0  XYZ 
  end
  begin
     id 7 
     name rfemur
     direction -0.34202 -0.939693 0   
     length 7.47417   
     axis 0 0 -20   XYZ
    dof rx ry rz
    limits (-160.0 20.0)
           (-70.0 70.0)
           (-70.0 60.0)
  end
  begin
     id 8 
     name rtibia
     direction -0.34202 -0.939693 0   
     length 7.69071   
     axis 0 0 -20   XYZ
    dof rx
    limits (-10.0 170.0)
 end
 begin
     id 9 
     name rfoot
     direction -0.103069 -0.28318 0.953512   
     length 2.16135  
     axis -90 -7.62852e-016 -20   XYZ
    dof rx rz
    limits (-45.0 90.0)
           (-20.0 70.0)
  end
  begin
     id 10 
     name rtoes
     direction -1.53581e-011 -4.21904e-011 1   
     length 1.07867   
     axis -90 -7.62852e-016 -20   XYZ
    dof rx
    limits (-90.0 20.0)
  end
  begin
     id 11 
     name lowerback
     direction -0.0258961 0.994776 -0.0987407   
     length 2.19412   
     axis 0 0 0   XYZ
    dof rx ry rz
    limits (-20.0 45.0)
           (-30.0 30.0)
           (-30.0 30.0)
  end
  begin
     id 12 
     name upperback
     direction 0.0402454 0.999185 0.00320666   
     length 2.18445   
     axis 0 0 0   XYZ
    dof rx ry rz
    limits (-20.0 45.0)
           (-30.0 30.0)
           (-30.0 30.0)
  end
  begin
     id 13 
     name thorax
     direction 0.0519376 0.997415 0.0496558   
     length 2.21487   
     axis 0 0 0   XYZ
    dof rx ry rz
    limits (-20.0 45.0)
           (-30.0 30.0)
           (-30.0 30.0)
  end
  begin
     id 14 
     name lowerneck
     direction -0.0921276 0.983211 0.157506   
     length 1.61201   
     axis 0 0 0   XYZ
    dof rx ry rz
    limits (-20.0 45.0)
           (-30.0 30.0)
           (-30.0 30.0)
  end
  begin
     id 15 
     name upperneck
     direction 0.0820814 0.98162 -0.172292   
     length 1.65275   
     axis 0 0 0   XYZ
    dof rx ry rz
    limits (-20.0 45.0)
           (-30.0 30.0)
           (-30.0 30.0)
  end
  begin
     id 16
     name head
     direction 0.0336554 0.996413 -0.0776455  
     length 1.66415  
     axis 0 0 0   XYZ
    dof rx ry rz
    limits (-20.0 45.0)
           (-30.0 30.0)
           (-30.0 30.0)
  end
  begin
     id 17 
     name lclavicle
     direction 0.94696 0.284418 -0.149576  
     length 3.41447  
     axis 0 0 0   XYZ
    dof ry rz
    limits (-20.0 10.0)
           (0.0 20.0)
  end
  begin
     id 18 
     name lhumerus
     direction 1 -0.000130264 -9.81312e-005   
     length 5.19964   
     axis 180 -30 -90   XYZ
    dof rx ry rz
    limits (-60.0 90.0)
           (-90.0 90.0)
           (-90.0 90.0)
  end
  begin
     id 19
     name lradius
     direction 1 -4.48961e-011 1.43854e-026   
     length 3.32189   
     axis 180 -30 -90   XYZ
    dof rx
    limits (-10.0 170.0)
  end
  begin
     id 20
     name lwrist
     direction 1 -4.48958e-011 3.1502e-026   
     length 1.66095   
     axis -1.97692e-014 90 90   XYZ
    dof ry
    limits (-180.0 0.0)
 end
  begin
     id 21 
     name lhand
     direction 1 -4.48927e-011 6.3004e-026   
     length 0.645616   
     axis -4.02019e-014 90 90   XYZ
    dof rx rz
    limits (-90.0 90.0)
           (-45.0 45.0)
  end
  begin
     id 22 
     name lfingers
     direction 1 -4.4904e-011 1.26008e-025   
     length 0.520512   
     axis -8.04039e-014 90 90   XYZ
    dof rx
    limits (0.0 90.0)
  end
  begin
     id 23
     name lthumb
     direction 0.707107 -6.34947e-011 0.707107   
     length 0.747354   
     axis -90 45 2.85299e-015   XYZ
    dof rx rz
    limits (-45.0 45.0)
           (-45.0 45.0)
  end
  begin
     id 24 
     name rclavicle
     direction -0.909391 0.383475 -0.161107   
     length 3.25176  
     axis 0 0 0   XYZ 
    dof ry rz
    limits (-10.0 20.0)
           (-20.0 0.0)
  end
  begin
     id 25 
     name rhumerus
     direction -1 -4.48965e-011 -1.81384e-027  
     length 5.6595   
     axis 180 30 90   XYZ
    dof rx ry rz
    limits (-90.0 60.0)
           (-90.0 90.0)
           (-90.0 90.0)
  end
  begin
     id 26 
     name rradius
     direction -1 -4.48996e-011 -8.09397e-027   
     length 3.37604   
     axis 180 30 90   XYZ
    dof rx
    limits (-10.0 170.0)
  end
  begin
     id 27 
     name rwrist
     direction -1 -4.48927e-011 -1.56669e-026   
     length 1.68802   
     axis 1.21142e-014 -90 -90   XYZ
    dof ry
    limits (-180.0 0.0)
  end
  begin
     id 28
     name rhand
     direction -1 -4.48912e-011 -3.13339e-026   
     length 0.824702   
     axis 1.99937e-014 -90 -90   XYZ
    dof rx rz
    limits (-90.0 90.0)
           (-45.0 45.0)
  end
  begin
     id 29
     name rfingers
     direction -1 -4.49011e-011 -6.26677e-026   
     length 0.664896   
     axis 3.99874e-014 -90 -90   XYZ
    dof rx
    limits (0.0 90.0)
  end
  begin
     id 30
     name rthumb
     direction -0.707107 -6.34931e-011 0.707107   
     length 0.954662   
     axis -90 -45 -2.85299e-015   XYZ
    dof rx rz
    limits (-45.0 45.0)
           (-45.0 45.0)
  end
:hierarchy
  begin
    root lhipjoint rhipjoint lowerback
    lhipjoint lfemur
    lfemur ltibia
    ltibia lfoot
    lfoot ltoes
    rhipjoint rfemur
    rfemur rtibia
    rtibia rfoot
    rfoot rtoes
    lowerback upperback
    upperback thorax
    thorax lowerneck lclavicle rclavicle
    lowerneck upperneck
    upperneck head
    lclavicle lhumerus
    lhumerus lradius
    lradius lwrist
    lwrist lhand lthumb
    lhand lfingers
    rclavicle rhumerus
    rhumerus rradius
    rradius rwrist
    rwrist rhand rthumb
    rhand rfingers
  end

#!OML:ASF F:\VICON\USERDATA\INSTALL\rory3\rory3.ASF
:FULLY-SPECIFIED
:DEGREES
314
root 5.10714 17.1213 -8.19457 27.2072 -31.215 -23.6574
lowerback 11.6404 1.7298 6.95296
upperback 1.32767 3.57415 10.0948
thorax -5.39308 1.63764 6.28361
lowerneck -9.6764 -6.77517 -13.6716
upperneck 24.6046 -11.8567 17.818
head 11.509 -4.99936 7.3828
rclavicle -7.81224e-014 -3.18055e-014
rhumerus -11.4975 4.27079 -61.4907
rradius 74.3709
rwrist -14.1442
rhand -17.1073 23.3312
rfingers 7.12502
rthumb 9.13177 -6.45106
lclavicle -7.81224e-014 -3.18055e-014
lhumerus -26.0836 32.7793 25.9075
lradius 32.4178
lwrist -1.50758
lhand -7.74165 39.2506
lfingers 7.12502
lthumb 18.1574 68.4231
rfemur -0.951294 -4.30675 29.3919
rtibia 34.5208
rfoot -2.98349 -0.158333
rtoes -10.0222
lfemur -64.0716 17.1321 -12.6955
ltibia 66.7393
lfoot -19.1835 1.6614
ltoes -5.84803
315
root 5.01028 17.1912 -7.86804 26.9072 -31.0723 -24.1243
lowerback 11.1706 1.82183 7.37933
upperback 1.39037 3.6808 10.3427
thorax -5.05945 1.68512 6.30782
lowerneck -8.98011 -6.89312 -14.0343
upperneck 24.6736 -12.0646 17.865
head 11.4615 -5.15886 7.45466
rclavicle 2.48481e-014 1.66979e-014
rhumerus -11.2199 4.98819 -60.6814
rradius 74.923
rwrist -14.2554
rhand -16.9409 23.5179
rfingers 7.12502
rthumb 9.29236 -6.25726
lclavicle 2.48481e-014 1.66979e-014
lhumerus -27.1182 33.5529 24.4317
lradius 32.5357
lwrist -1.36966
lhand -8.03878 40.2569
lfingers 7.12502
lthumb 17.8715 69.4557
rfemur 1.08106 -4.72884 28.6091
rtibia 32.4572
rfoot 3.05874 0.937106
rtoes 1.30392
lfemur -63.5558 17.0823 -12.2663
ltibia 63.344
lfoot -18.6762 1.80558
ltoes -7.19128
316
root 4.91023 17.2575 -7.54106 26.5314 -30.8699 -24.6263
lowerback 10.103 1.79836 7.92164
upperback 1.91334 3.47788 10.6416
thorax -3.87506 1.58945 6.38072
lowerneck -8.74642 -7.0232 -14.6305
upperneck 24.7213 -12.2097 17.9924
head 11.5145 -5.27961 7.60183
rclavicle -3.63776e-014 5.32743e-014
rhumerus -10.1013 5.54065 -59.8899
rradius 75.1594
rwrist -14.0548
rhand -17.1823 23.6096
rfingers 7.12502
rthumb 9.05946 -6.17584
lclavicle -3.63776e-014 5.32743e-014
lhumerus -28.2579 34.7139 22.8341
lradius 32.5928
lwrist -1.18614
lhand -8.50301 40.3257
lfingers 7.12502
lthumb 17.4248 69.5647
rfemur 3.1397 -5.09268 27.8626
rtibia 30.5086
rfoot 9.33984 1.33434
rtoes 9.0964
lfemur -62.8046 17.0307 -11.709
ltibia 59.8717
lfoot -17.9922 1.70914
ltoes -7.6564
317
root 4.8107 17.3157 -7.21056 26.0203 -30.6703 -25.0287
lowerback 9.629 1.69878 8.06094
upperback 1.94166 3.29055 11.141
thorax -3.59202 1.49704 6.89237
lowerneck -7.9294 -6.99188 -15.5195
upperneck 25.0813 -12.1569 17.9498
head 11.5311 -5.38527 7.79692
rclavicle 3.33958e-014 -5.40694e-014
rhumerus -9.63865 6.63283 -58.8995
rradius 75.2641
rwrist -13.6365
rhand -17.6464 23.8335
rfingers 7.12502
rthumb 8.61154 -5.97086
lclavicle 3.33958e-014 -5.40694e-014
lhumerus -30.4521 34.5612 21.0181
lradius 33.0884
lwrist -0.460512
lhand -8.58765 40.6061
lfingers 7.12502
lthumb 17.3433 69.8523
rfemur 5.24281 -5.20303 27.1546
rtibia 28.7927
rfoot 14.2421 2.31847
rtoes 7.90947
lfemur -61.851 16.9281 -11.1588
ltibia 56.371
lfoot -17.121 1.50249
ltoes -6.81425
318
root 4.70958 17.3579 -6.88252 25.3876 -30.5908 -25.3039
lowerback 9.29285 1.85794 8.3068
upperback 1.93526 3.47878 11.3191
thorax -3.41897 1.59071 6.93522
lowerneck -7.13544 -7.18257 -15.8202
upperneck 25.2172 -12.5344 17.9976
head 11.5268 -5.62249 7.84052
rclavicle -2.90226e-014 -3.73715e-014
rhumerus -9.8088 6.80902 -58.0339
rradius 75.3929
rwrist -13.1505
rhand -18.0469 24.2628
rfingers 7.12502
rthumb 8.22511 -5.55709
lclavicle -2.90226e-014 -3.73715e-014
lhumerus -31.1224 34.5178 19.7492
lradius 33.22
lwrist -0.453992
lhand -8.34509 40.9387
lfingers 7.12502
lthumb 17.5768 70.1642
rfemur 7.78757 -4.17186 26.5008
rtibia 27.4659
rfoot 16.6918 1.78884
rtoes 12.1386
lfemur -60.7821 16.7628 -10.5968
ltibia 52.8949
lfoot -16.0015 1.04217
ltoes -2.97182
319
root 4.60354 17.3858 -6.55726 24.7702 -30.5696 -25.514
lowerback 8.63633 2.19638 8.75333
upperback 2.26023 3.81143 11.1652
thorax -2.68312 1.76613 6.49312
lowerneck -7.2964 -7.67181 -15.2507
upperneck 25.3581 -13.3337 17.9111
head 11.7409 -5.92525 7.57709
rclavicle 1.06946e-013 7.79236e-014
rhumerus -9.70596 5.82411 -57.541
rradius 75.3206
rwrist -12.5857
rhand -18.3095 24.8834
rfingers 7.12502
rthumb 7.9716 -4.94627
lclavicle 1.06946e-013 7.79236e-014
lhumerus -30.1468 35.2052 18.9244
lradius 32.8105
lwrist -1.0092
lhand -8.34608 41.1366
lfingers 7.12502
lthumb 17.5758 70.3621
rfemur 10.0987 -3.24371 25.818
rtibia 26.6157
rfoot 17.2983 1.6989
rtoes 12.3575
lfemur -59.6925 16.495 -9.93939
ltibia 49.4816
lfoot -15.0391 0.855212
ltoes 0.024607
320
root 4.50016 17.3976 -6.22919 24.1225 -30.4499 -25.7745
lowerback 7.94043 2.55682 9.44475
upperback 2.78096 4.14402 10.9602
thorax -1.68859 1.95159 5.88513
lowerneck -8.31213 -8.36339 -14.5943
upperneck 25.7312 -14.4028 17.8614
head 12.2788 -6.28337 7.24884
rclavicle -1.98785e-014 1.82882e-014
rhumerus -9.06661 4.17222 -57.1834
rradius 74.7011
rwrist -11.8822
rhand -18.4645 25.5093
rfingers 7.12502
rthumb 7.82199 -4.32604
lclavicle -1.98785e-014 1.82882e-014
lhumerus -28.5403 36.1801 18.4708
lradius 32.2686
lwrist -1.59429
lhand -8.42819 41.425
lfingers 7.12502
lthumb 17.4968 70.6576
rfemur 12.3068 -2.7115 25.105
rtibia 26.2572
rfoot 17.1586 1.53875
rtoes 13.1533
lfemur -58.4957 16.049 -9.10667
ltibia 46.2266
lfoot -14.443 1.47786
ltoes -0.0396078
321
root 4.39865 17.4016 -5.90597 23.2941 -30.2499 -25.9366
lowerback 7.93056 2.45401 9.40206
upperback 2.54571 4.04453 11.2655
thorax -1.95565 1.89447 6.2496
lowerneck -7.47458 -8.36067 -15.065
upperneck 26.2719 -14.5033 17.7685
head 12.3712 -6.42739 7.33775
rclavicle -9.14409e-015 -5.00937e-014
rhumerus -9.6956 4.85181 -56.4507
rradius 74.8091
rwrist -11.5579
rhand -18.7142 25.6265
rfingers 7.12502
rthumb 7.58103 -4.21765
lclavicle -9.14409e-015 -5.00937e-014
lhumerus -30.2662 32.6749 17.688
lradius 34.1674
lwrist 0.915476
lhand -9.02482 43.7243
lfingers 7.12502
lthumb 16.9225 73.0071
rfemur 14.3933 -2.10995 24.4389
rtibia 26.494
rfoot 17.3002 0.210284
rtoes 17.255
lfemur -57.0824 15.3424 -8.19147
ltibia 43.1025
lfoot -14.0576 2.54577
ltoes -1.55414
